<?xml version="1.0" encoding="UTF-8" standalone="no"?>
<!DOCTYPE svg PUBLIC "-//W3C//DTD SVG 1.1//EN"
 "http://www.w3.org/Graphics/SVG/1.1/DTD/svg11.dtd">
<!-- Generated by graphviz version 2.47.0 (20210316.0004)
 -->
<!-- Title: dependencies Pages: 1 -->
<svg width="624pt" height="284pt"
 viewBox="0.00 0.00 624.00 284.00" xmlns="http://www.w3.org/2000/svg" xmlns:xlink="http://www.w3.org/1999/xlink">
<g id="graph0" class="graph" transform="scale(1 1) rotate(0) translate(4 280)">
<title>dependencies</title>
<polygon fill="white" stroke="transparent" points="-4,4 -4,-280 620,-280 620,4 -4,4"/>
<text text-anchor="start" x="287.01" y="-42.4" font-family="Times-12" font-weight="bold" font-size="14.00">Legend</text>
<polygon fill="#ffffb3" stroke="transparent" points="74,-10 74,-30 94,-30 94,-10 74,-10"/>
<text text-anchor="start" x="97.63" y="-15.4" font-family="Times-12" font-size="14.00"> &#160;Declarations</text>
<polygon fill="#8dd3c7" stroke="transparent" points="187,-10 187,-30 207,-30 207,-10 187,-10"/>
<text text-anchor="start" x="210.73" y="-15.4" font-family="Times-12" font-size="14.00"> &#160;Module</text>
<polygon fill="#80b1d3" stroke="transparent" points="273,-10 273,-30 293,-30 293,-10 273,-10"/>
<text text-anchor="start" x="296.78" y="-15.4" font-family="Times-12" font-size="14.00"> &#160;Bootstrap</text>
<polygon fill="#fdb462" stroke="transparent" points="370,-10 370,-30 390,-30 390,-10 370,-10"/>
<text text-anchor="start" x="393.67" y="-15.4" font-family="Times-12" font-size="14.00"> &#160;Providers</text>
<polygon fill="#fb8072" stroke="transparent" points="466,-10 466,-30 486,-30 486,-10 466,-10"/>
<text text-anchor="start" x="489.73" y="-15.4" font-family="Times-12" font-size="14.00"> &#160;Exports</text>
<g id="clust1" class="cluster">
<title>cluster_AppModule</title>
<polygon fill="none" stroke="black" stroke-dasharray="1,5" points="8,-70 8,-268 608,-268 608,-70 8,-70"/>
</g>
<g id="clust2" class="cluster">
<title>cluster_AppModule_declarations</title>
<polygon fill="none" stroke="black" points="16,-78 16,-130 600,-130 600,-78 16,-78"/>
</g>
<g id="clust9" class="cluster">
<title>cluster_AppModule_bootstrap</title>
<polygon fill="none" stroke="black" points="257,-208 257,-260 381,-260 381,-208 257,-208"/>
</g>
<!-- AppComponent -->
<g id="node1" class="node">
<title>AppComponent</title>
<polygon fill="#ffffb3" stroke="black" points="591.94,-122 486.06,-122 486.06,-86 591.94,-86 591.94,-122"/>
<text text-anchor="middle" x="539" y="-99.8" font-family="Times,serif" font-size="14.00">AppComponent</text>
</g>
<!-- AppModule -->
<g id="node5" class="node">
<title>AppModule</title>
<polygon fill="#8dd3c7" stroke="black" points="360.66,-187 357.66,-191 336.66,-191 333.66,-187 277.34,-187 277.34,-151 360.66,-151 360.66,-187"/>
<text text-anchor="middle" x="319" y="-164.8" font-family="Times,serif" font-size="14.00">AppModule</text>
</g>
<!-- AppComponent&#45;&gt;AppModule -->
<g id="edge1" class="edge">
<title>AppComponent&#45;&gt;AppModule</title>
<path fill="none" stroke="black" d="M539,-122.11C539,-141.34 539,-169 539,-169 539,-169 370.9,-169 370.9,-169"/>
<polygon fill="black" stroke="black" points="370.9,-165.5 360.9,-169 370.9,-172.5 370.9,-165.5"/>
</g>
<!-- CardInputComponent -->
<g id="node2" class="node">
<title>CardInputComponent</title>
<polygon fill="#ffffb3" stroke="black" points="468.1,-122 329.9,-122 329.9,-86 468.1,-86 468.1,-122"/>
<text text-anchor="middle" x="399" y="-99.8" font-family="Times,serif" font-size="14.00">CardInputComponent</text>
</g>
<!-- CardInputComponent&#45;&gt;AppModule -->
<g id="edge2" class="edge">
<title>CardInputComponent&#45;&gt;AppModule</title>
<path fill="none" stroke="black" d="M345.39,-122.11C345.39,-122.11 345.39,-140.99 345.39,-140.99"/>
<polygon fill="black" stroke="black" points="341.89,-140.99 345.39,-150.99 348.89,-140.99 341.89,-140.99"/>
</g>
<!-- CreditCardComponent -->
<g id="node3" class="node">
<title>CreditCardComponent</title>
<polygon fill="#ffffb3" stroke="black" points="311.54,-122 168.46,-122 168.46,-86 311.54,-86 311.54,-122"/>
<text text-anchor="middle" x="240" y="-99.8" font-family="Times,serif" font-size="14.00">CreditCardComponent</text>
</g>
<!-- CreditCardComponent&#45;&gt;AppModule -->
<g id="edge3" class="edge">
<title>CreditCardComponent&#45;&gt;AppModule</title>
<path fill="none" stroke="black" d="M294.47,-122.11C294.47,-122.11 294.47,-140.99 294.47,-140.99"/>
<polygon fill="black" stroke="black" points="290.97,-140.99 294.47,-150.99 297.97,-140.99 290.97,-140.99"/>
</g>
<!-- SuccessComponent -->
<g id="node4" class="node">
<title>SuccessComponent</title>
<polygon fill="#ffffb3" stroke="black" points="149.65,-122 24.35,-122 24.35,-86 149.65,-86 149.65,-122"/>
<text text-anchor="middle" x="87" y="-99.8" font-family="Times,serif" font-size="14.00">SuccessComponent</text>
</g>
<!-- SuccessComponent&#45;&gt;AppModule -->
<g id="edge4" class="edge">
<title>SuccessComponent&#45;&gt;AppModule</title>
<path fill="none" stroke="black" d="M87,-122.11C87,-141.34 87,-169 87,-169 87,-169 267.26,-169 267.26,-169"/>
<polygon fill="black" stroke="black" points="267.26,-172.5 277.26,-169 267.26,-165.5 267.26,-172.5"/>
</g>
<!-- AppComponent  -->
<g id="node6" class="node">
<title>AppComponent </title>
<polygon fill="#80b1d3" stroke="black" points="373.44,-252 264.56,-252 264.56,-216 373.44,-216 373.44,-252"/>
<text text-anchor="middle" x="319" y="-229.8" font-family="Times,serif" font-size="14.00">AppComponent </text>
</g>
<!-- AppModule&#45;&gt;AppComponent  -->
<g id="edge5" class="edge">
<title>AppModule&#45;&gt;AppComponent </title>
<path fill="none" stroke="black" stroke-dasharray="1,5" d="M319,-187.11C319,-187.11 319,-205.99 319,-205.99"/>
<polygon fill="black" stroke="black" points="315.5,-205.99 319,-215.99 322.5,-205.99 315.5,-205.99"/>
</g>
</g>
</svg>
